<?xml version="1.0" standalone="no"?>
<!DOCTYPE svg PUBLIC "-//W3C//DTD SVG 20010904//EN"
 "http://www.w3.org/TR/2001/REC-SVG-20010904/DTD/svg10.dtd">
<svg version="1.0" xmlns="http://www.w3.org/2000/svg"
 width="500.000000pt" height="500.000000pt" viewBox="0 0 500.000000 500.000000"
 preserveAspectRatio="xMidYMid meet">
<metadata>
Created by potrace 1.14, written by Peter Selinger 2001-2017
</metadata>
<g transform="translate(0.000000,500.000000) scale(0.100000,-0.100000)"
fill="#000000" stroke="none">
<path d="M1958 2893 c-3 -564 -3 -568 -25 -609 -45 -84 -128 -121 -214 -95
-48 15 -105 69 -114 110 -4 17 -10 33 -15 36 -4 2 -60 -7 -125 -22 l-117 -27
5 -33 c9 -55 53 -139 97 -187 117 -127 366 -162 545 -77 70 33 141 101 179
171 53 97 56 136 56 743 l0 557 -135 0 -134 0 -3 -567z"/>
<path d="M2470 3340 l0 -120 385 -2 385 -3 -390 -495 -390 -495 0 -122 0 -123
565 0 565 0 0 120 0 120 -403 2 -403 3 397 500 398 500 1 118 0 117 -555 0
-555 0 0 -120z"/>
</g>
</svg>
